<svg xmlns="http://www.w3.org/2000/svg" xmlns:xlink="http://www.w3.org/1999/xlink"><symbol id="basket"><g fill="none">
    <path d="M2.858 4.403h1.684c.752 0 1.129 0 1.412.205.283.204.402.56.64 1.274l.588 1.764" stroke="#141C24" stroke-width="1.5" stroke-linecap="round"/>
    <path d="M17.992 18.456H7.776c-.156 0-.235 0-.296-.007a1.082 1.082 0 0 1-.937-1.3 3.33 3.33 0 0 1 .088-.283c.056-.167.083-.25.114-.325a2.162 2.162 0 0 1 1.836-1.323c.08-.005.167-.005.342-.005h5.826" stroke="#141C24" stroke-width="1.5" stroke-linecap="round" stroke-linejoin="round"/>
    <path d="M14.402 15.213h-3.287c-1.384 0-2.076 0-2.616-.356-.542-.357-.814-.993-1.36-2.264l-.182-.426c-.876-2.043-1.312-3.062-.832-3.792.482-.729 1.593-.729 3.813-.729h5.708c2.486 0 3.728 0 4.197.808.468.807-.148 1.886-1.381 4.044l-.306.537c-.607 1.063-.911 1.595-1.415 1.886-.503.292-1.115.292-2.34.292Z" stroke="#141C24" stroke-width="1.5" stroke-linecap="round"/>
    <path d="M17.451 22.24a1.081 1.081 0 1 0 0-2.163 1.081 1.081 0 0 0 0 2.162ZM7.722 22.24a1.081 1.081 0 1 0 0-2.163 1.081 1.081 0 0 0 0 2.162Z" fill="#141C24"/>
</g></symbol><symbol id="logo"><g fill="none">
    <path d="M11.76 3.883v9.688H1.022V3.883h2.03v8.064h2.38V3.883H7.35v8.064h2.394V3.883h2.016Zm9.353 9.688h-2.03V9.68c0-1.325.098-2.566.294-3.724l-3.052 7.616h-2.52V3.883h2.03v3.934c0 .784-.028 1.438-.084 1.96a30.221 30.221 0 0 1-.21 1.708l3.108-7.602h2.464v9.688Zm12.488-4.9c0 1.391-.402 2.446-1.204 3.164-.803.71-1.918 1.088-3.346 1.134v1.134h-2.002v-1.148c-1.447-.065-2.567-.448-3.36-1.148-.794-.709-1.19-1.74-1.19-3.094 0-1.39.401-2.44 1.204-3.15.802-.718 1.918-1.101 3.346-1.148v-1.05h2.002V4.43c1.446.066 2.566.453 3.36 1.162.793.7 1.19 1.727 1.19 3.08Zm-4.634 2.982c.886-.056 1.53-.322 1.932-.798.401-.476.602-1.204.602-2.184 0-.961-.206-1.68-.616-2.156-.41-.476-1.05-.737-1.918-.784v5.922Zm-4.368-2.94c0 .962.205 1.68.616 2.156.41.476 1.05.738 1.918.784V5.731c-.887.056-1.53.322-1.932.798-.402.476-.602 1.204-.602 2.184Zm16.318-4.83-.224 1.61h-2.45v8.078h-2.058V5.493h-2.576v-1.61h7.308ZM4.018 20.883c1.26 0 2.235.262 2.926.784.7.523 1.05 1.302 1.05 2.338 0 1.083-.345 1.9-1.036 2.45-.69.542-1.615.812-2.772.812H3.08v3.304H1.022v-9.688h2.996Zm0 4.872c.597 0 1.055-.135 1.372-.406.317-.27.476-.718.476-1.344 0-1.092-.625-1.638-1.876-1.638h-.91v3.388h.938Zm7.388-4.872v9.688H9.348v-9.688h2.058Zm8.077 0v1.582l-4.34 6.44h4.41l-.224 1.666h-6.594v-1.554l4.424-6.51h-3.976v-1.624h6.3Zm7.465 0v1.582l-4.34 6.44h4.41l-.224 1.666H20.2v-1.554l4.424-6.51h-3.976v-1.624h6.3Zm6.651 9.688-.546-2.17h-3.038l-.546 2.17h-2.142l2.982-9.688h2.506l2.968 9.688H33.6Zm-3.192-3.696h2.254l-1.134-4.466-1.12 4.466Z" fill="#F4511E"/>
    <path d="m61 20.238-1.334 1.333m3.667 4.334-1.667 1.893M68.7 9.11a20.907 20.907 0 0 0-16.162 16.16m17.528-11.299a5.321 5.321 0 0 0 2.8 10.267m1.419 4.976a1.334 1.334 0 0 1-1.643 1.643l-24-6.667a1.334 1.334 0 0 1-.926-1.643 26.24 26.24 0 0 1 18.26-18.26 1.333 1.333 0 0 1 1.642.927l6.667 24Z" stroke="#F4511E" stroke-width="2" stroke-linecap="round" stroke-linejoin="round"/>
</g></symbol><symbol id="Time"><g fill="none">
    <path d="M15.924 16.695a.743.743 0 0 0 .025-1.074L12.7 12.37v-5.05a.75.75 0 0 0-1.5 0v5.236a1 1 0 0 0 .293.707l3.406 3.407c.28.28.732.29 1.025.024Z" fill="#141C24"/>
    <path d="M12 22.571a9.676 9.676 0 0 1-3.875-.787 10.144 10.144 0 0 1-3.188-2.15 10.142 10.142 0 0 1-2.15-3.188 9.738 9.738 0 0 1-.787-3.9c0-1.366.263-2.658.788-3.875a9.994 9.994 0 0 1 2.15-3.175A10.25 10.25 0 0 1 8.124 3.36a9.738 9.738 0 0 1 3.9-.788c1.367 0 2.658.263 3.875.788a10.098 10.098 0 0 1 3.175 2.137c.9.9 1.613 1.959 2.137 3.175a9.738 9.738 0 0 1 .788 3.9 9.676 9.676 0 0 1-.788 3.875 10.25 10.25 0 0 1-2.137 3.188 9.994 9.994 0 0 1-3.175 2.15 9.738 9.738 0 0 1-3.9.787Zm0-1.5c2.367 0 4.375-.829 6.025-2.487 1.65-1.659 2.475-3.663 2.475-6.013 0-2.366-.825-4.375-2.475-6.025-1.65-1.65-3.658-2.475-6.025-2.475-2.35 0-4.354.825-6.013 2.475C4.33 8.196 3.5 10.205 3.5 12.571c0 2.35.83 4.354 2.487 6.013C7.646 20.242 9.65 21.07 12 21.07Z" fill="#141C24"/>
</g></symbol><symbol id="User"><g fill="none">
    <path fill-rule="evenodd" clip-rule="evenodd" d="M16 8.571a4 4 0 1 1-8 0 4 4 0 0 1 8 0Zm-1.5 0a2.5 2.5 0 1 1-5 0 2.5 2.5 0 0 1 5 0ZM4 18.343v2.228h16v-2.228a4 4 0 0 0-2.596-3.745l-.137-.052a15 15 0 0 0-10.534 0l-.137.052A4 4 0 0 0 4 18.343Zm3.26-2.392a13.5 13.5 0 0 1 9.48 0l.138.052a2.5 2.5 0 0 1 1.622 2.34v.728h-13v-.728a2.5 2.5 0 0 1 1.622-2.34l.138-.052Z" fill="#141C24"/>
</g></symbol></svg>